<?xml version="1.0" encoding="utf-8"?>
<!-- Generator: Adobe Illustrator 24.0.1, SVG Export Plug-In . SVG Version: 6.00 Build 0)  -->
<svg version="1.1" id="Layer_1" xmlns="http://www.w3.org/2000/svg" xmlns:xlink="http://www.w3.org/1999/xlink" x="0px" y="0px"
	 viewBox="0 0 24 24" style="enable-background:new 0 0 24 24;" xml:space="preserve">
<style type="text/css">
	.st0{fill:none;}
	.st1{fill:#35BDB8;}
	.st2{fill:#FFFFFF;}
</style>
<path class="st0" d="M53.2-10.3h18v18h-18V-10.3z"/>
<circle class="st1" cx="12" cy="12" r="12"/>
<path class="st2" d="M11.1,4c-0.4,0-0.8,0.2-0.9,0.6L8.4,9.6l-4.9,2.4c0,0,0,0,0,0c-0.4-0.4-1-0.5-1.5-0.3v1.5
	c0.2-0.1,0.3-0.2,0.5-0.3c0.4,0.4,1,0.6,1.6,0.6s1.2-0.2,1.6-0.6c0.4,0.4,1,0.6,1.6,0.6c0.6,0,1.2-0.2,1.6-0.6
	c0.4,0.4,1,0.6,1.6,0.6c0.6,0,1.1-0.2,1.6-0.6c0.4,0.4,1,0.6,1.6,0.6c0.6,0,1.1-0.2,1.6-0.6c0.4,0.4,1,0.6,1.6,0.6
	c0.6,0,1.1-0.2,1.6-0.6c0.4,0.4,1,0.6,1.6,0.6c0.6,0,1.1-0.2,1.6-0.6c0.2,0.2,0.4,0.3,0.6,0.4v-1.5c-0.5-0.3-1.1-0.2-1.5,0.2
	c-0.4,0.4-1,0.4-1.3,0c-0.5-0.5-1.3-0.5-1.8,0c-0.4,0.4-1,0.4-1.3,0c-0.5-0.5-1.3-0.5-1.8,0c-0.4,0.4-1,0.4-1.3,0
	c-0.3-0.3-0.8-0.4-1.2-0.3c0.4-1-0.1-2-1.1-2.4l1.2-3.3h4c0.5,0,0.9-0.4,0.9-0.9S16.3,4,15.8,4H11.1z M13.8,7.1
	c-0.3,0-0.5,0.1-0.7,0.2c-0.9,0.5-1.3,1.6-0.9,2.5c0.5,0.9,1.6,1.3,2.5,0.9c0.9-0.5,1.3-1.6,0.9-2.5C15.2,7.5,14.5,7.1,13.8,7.1
	L13.8,7.1z M5.7,14c-0.3,0-0.7,0.1-0.9,0.4c-0.4,0.4-1,0.4-1.3,0c-0.4-0.4-1-0.5-1.5-0.3v1.5c0.2-0.1,0.3-0.2,0.5-0.3
	c0.4,0.4,1,0.6,1.6,0.6s1.2-0.2,1.6-0.6c0.4,0.4,1,0.6,1.6,0.6c0.6,0,1.2-0.2,1.6-0.6c0.4,0.4,1,0.6,1.6,0.6c0.6,0,1.1-0.2,1.6-0.6
	c0.4,0.4,1,0.6,1.6,0.6c0.6,0,1.1-0.2,1.6-0.6c0.4,0.4,1,0.6,1.6,0.6c0.6,0,1.1-0.2,1.6-0.6c0.4,0.4,1,0.6,1.6,0.6
	c0.6,0,1.1-0.2,1.6-0.6c0.2,0.2,0.4,0.3,0.6,0.4v-1.5c-0.5-0.3-1.1-0.2-1.5,0.2c-0.4,0.4-1,0.4-1.3,0c-0.5-0.5-1.3-0.5-1.8,0
	c-0.4,0.4-1,0.4-1.3,0c-0.5-0.5-1.3-0.5-1.8,0c-0.4,0.4-1,0.4-1.3,0c-0.5-0.5-1.3-0.5-1.8,0c-0.4,0.4-1,0.4-1.3,0
	c-0.5-0.5-1.3-0.5-1.8,0c-0.4,0.4-1,0.4-1.3,0C6.4,14.2,6.1,14,5.7,14L5.7,14z"/>
</svg>
