<?xml version="1.0" encoding="utf-8"?>
<!-- Generator: Adobe Illustrator 24.0.1, SVG Export Plug-In . SVG Version: 6.00 Build 0)  -->
<svg version="1.1" id="Layer_1" xmlns="http://www.w3.org/2000/svg" xmlns:xlink="http://www.w3.org/1999/xlink" x="0px" y="0px"
	 viewBox="0 0 32 32" style="enable-background:new 0 0 32 32;" xml:space="preserve">
<style type="text/css">
	.st0{fill:#0E0E0E;}
	.st1{fill:#202020;}
</style>
<path class="st0" d="M12.6,15.7c-0.8-1.7-3.7-2.8-2-4.9c1.7-2,2.9-5.3,6.5-4.7c0.8,0.1,1.2,0.2,1-0.8c-0.6-2.3,0.1-3.8,2.6-3.7
	c1.3,0,2,1,1.9,2.3c-0.2,2.5-1.9,2.9-4.4,2.1c1.3,2.5,2.7,3.8,4.8,4.4c0.8,0.3,1.8,0.7,1.5,1.8c-0.4,1.3-1.6,1-2.5,0.6
	c-1-0.5-2-1-2.9-1.6c-1-0.7-1.6-1.8-2.9-0.2c-1,1.2-1.5,1.9-0.2,3.3c2.1,2.3,1,5.2,1,7.9c0,0.5-0.4,1-0.9,0.9
	c-0.4-0.1-1-0.5-1.1-0.8c-0.2-1.1-0.3-2.2-0.3-3.3C14.8,17.4,14.5,16.1,12.6,15.7L12.6,15.7z"/>
<path class="st1" d="M12.6,15.7c-1.5,0.9,0,1.6,0.3,2.3c1.3,3.3,0.5,6.5-2.3,8.1c-2.7,1.6-5.3,1.2-7.5-0.9c-2.1-2-2.2-5.6-0.4-8.2
	c1.7-2.4,4.8-3,7.9-1.5C11.2,15.8,11.8,17.2,12.6,15.7L12.6,15.7z M3.4,20.6C3.5,23.5,5,25,7.5,25s4.1-1.7,4.1-4.3
	c-0.1-2.3-1.6-4-4-4.1C5.1,16.6,3.6,18.2,3.4,20.6z"/>
<path class="st1" d="M18.5,20.7c0.1-3.6,2.6-6.1,6.1-6c3.4,0.1,6,2.8,5.9,6.2S27.7,27,24.3,27C21,27,18.4,24.3,18.5,20.7z
	 M28.6,20.5c-0.3-2.3-1.6-3.9-4.1-3.9c-2.7,0-4.1,1.9-4.1,4.3c0,2.6,1.9,4.2,4.5,4C27.3,24.9,28.6,23.2,28.6,20.5z"/>
</svg>
