<?xml version="1.0" encoding="utf-8"?>
<!-- Generator: Adobe Illustrator 24.0.1, SVG Export Plug-In . SVG Version: 6.00 Build 0)  -->
<svg version="1.1" id="Layer_1" xmlns="http://www.w3.org/2000/svg" xmlns:xlink="http://www.w3.org/1999/xlink" x="0px" y="0px"
	 viewBox="0 0 32 32" style="enable-background:new 0 0 32 32;" xml:space="preserve">
<style type="text/css">
	.st0{fill:#0E0E0E;}
	.st1{fill:#202020;}
	.st2{fill:#FDFDFD;}
	.st3{fill:#FCFCFC;}
	.st4{fill:#040404;}
	.st5{fill:#0C0C0C;}
</style>
<g>
	<path class="st0" d="M-30.7-86.8c-0.8-1.7-3.7-2.8-2-4.9c1.7-2,2.9-5.3,6.5-4.7c0.8,0.1,1.2,0.2,1-0.8c-0.6-2.3,0.1-3.8,2.6-3.7
		c1.3,0,2,1,1.9,2.3c-0.2,2.5-1.9,2.9-4.4,2.1c1.3,2.5,2.7,3.8,4.8,4.4c0.8,0.3,1.8,0.7,1.5,1.8c-0.4,1.3-1.6,1-2.5,0.6
		c-1-0.5-2-1-2.9-1.6c-1-0.7-1.6-1.8-2.9-0.2c-1,1.2-1.5,1.9-0.2,3.3c2.1,2.3,1,5.2,1,7.9c0,0.5-0.4,1-0.9,0.9
		c-0.4-0.1-1-0.5-1.1-0.8c-0.2-1.1-0.3-2.2-0.3-3.3C-28.5-85.1-28.8-86.4-30.7-86.8L-30.7-86.8z"/>
	<path class="st1" d="M-30.7-86.8c-1.5,0.9,0,1.6,0.3,2.3c1.3,3.3,0.5,6.5-2.3,8.1c-2.7,1.6-5.3,1.2-7.5-0.9c-2.1-2-2.2-5.6-0.4-8.2
		c1.7-2.4,4.8-3,7.9-1.5C-32.1-86.7-31.5-85.3-30.7-86.8L-30.7-86.8z M-39.9-81.9c0.1,2.9,1.6,4.4,4.1,4.4s4.1-1.7,4.1-4.3
		c-0.1-2.3-1.6-4-4-4.1C-38.2-85.9-39.7-84.3-39.9-81.9z"/>
	<path class="st1" d="M-24.8-81.8c0.1-3.6,2.6-6.1,6.1-6c3.4,0.1,6,2.8,5.9,6.2c-0.1,3.4-2.8,6.1-6.2,6.1
		C-22.3-75.5-24.9-78.2-24.8-81.8z M-14.7-82c-0.3-2.3-1.6-3.9-4.1-3.9c-2.7,0-4.1,1.9-4.1,4.3c0,2.6,1.9,4.2,4.5,4
		C-16-77.6-14.7-79.3-14.7-82z"/>
	<path class="st2" d="M-39.9-81.9c0.2-2.4,1.7-4,4.2-4c2.4,0,3.9,1.8,4,4.1c0.1,2.6-1.6,4.3-4.1,4.3S-39.8-79-39.9-81.9z"/>
	<path class="st2" d="M-14.7-82c0,2.6-1.3,4.3-3.7,4.5c-2.5,0.2-4.4-1.4-4.5-4c0-2.5,1.4-4.3,4.1-4.3C-16.3-85.8-15-84.3-14.7-82z"
		/>
</g>
<path class="st3" d="M-77-127.3c-10,0-20,0-30,0c-1,0-1.1-0.2-1.1-1.1c0-15.2,0-30.5,0-45.7c0-1,0.2-1.1,1.1-1.1c20,0,40,0,60,0
	c1,0,1.1,0.2,1.1,1.1c0,15.2,0,30.5,0,45.7c0,1-0.2,1.1-1.1,1.1C-57-127.3-67-127.3-77-127.3z M-91.8-149.7c0,2.3,0,4.7,0,7
	c0,0.6,0,1.2,0.6,1.6c0.4,0.3,0.7,0.7,1.3,0.5c0.4-0.1,0.4-0.5,0.4-0.9c0.3-2.4,0.5-2.8,1.9-2.8c5.9,0,11.8,0,17.7,0
	c1.1,0,1.7,0.7,1.8,1.8c0,0.4,0,0.7,0,1.1c0,1,0.7,0.8,1.3,0.8c0.5,0,1,0,1-0.7c0-3.3,0.1-6.6,0-9.9c0-1.8-1.9-4-3.3-4.1
	c-3-0.1-5.9,0-8.9,0c-1.2,0-1.8,0.7-1.8,1.7c-0.1,1.5,0,2.9,0,4.4c0,1.3-0.7,1.9-2,1.9c-1.7,0.1-3.4,0-5.2,0c-2,0-2.4-0.5-2.4-2.6
	c0-2.2,0-4.4,0-6.6c0-0.8-0.2-1.1-1-1.1c-0.9,0-1.3,0.2-1.3,1.2C-91.7-154.1-91.8-151.9-91.8-149.7z M-84-155.3
	c-2.9,0-4.1,0.9-4.1,3.2c0,2.2,1.1,3.4,3.1,3.4c2.2,0.1,3.5-1.1,3.5-3C-81.3-154.3-82-155.3-84-155.3z"/>
<g>
	<path class="st4" d="M3,13.4c0-2.2,0-4.4,0-6.6c0-1,0.3-1.2,1.3-1.2c0.8,0,1,0.3,1,1.1c0,2.2,0,4.4,0,6.6c0,2.2,0.4,2.6,2.4,2.6
		c1.7,0,3.4,0,5.2,0c1.3,0,1.9-0.7,2-1.9c0.1-1.5-0.1-2.9,0-4.4c0.1-1,0.7-1.7,1.8-1.7c3,0,5.9,0,8.9,0c1.4,0,3.3,2.2,3.3,4.1
		c0.1,3.3,0,6.6,0,9.9c0,0.7-0.5,0.7-1,0.7c-0.6,0-1.3,0.2-1.3-0.8c0-0.4,0-0.7,0-1.1c-0.1-1.1-0.7-1.8-1.8-1.8
		c-5.9,0-11.8,0-17.7,0c-1.4,0-1.6,0.3-1.9,2.8c0,0.4-0.1,0.8-0.4,0.9C4.3,22.7,4,22.3,3.6,22C3,21.6,3,21,3,20.4
		C3.1,18.1,3,15.7,3,13.4z"/>
	<path class="st5" d="M10.9,7.8c1.9,0,2.6,1,2.6,3.6c-0.1,2-1.4,3.1-3.5,3c-2.1-0.1-3.2-1.3-3.1-3.4C6.8,8.7,8,7.8,10.9,7.8z"/>
</g>
</svg>
