<?xml version="1.0" encoding="utf-8"?>
<!-- Generator: Adobe Illustrator 24.0.1, SVG Export Plug-In . SVG Version: 6.00 Build 0)  -->
<svg version="1.1" id="Layer_1" xmlns="http://www.w3.org/2000/svg" xmlns:xlink="http://www.w3.org/1999/xlink" x="0px" y="0px"
	 viewBox="0 0 32 32" style="enable-background:new 0 0 32 32;" xml:space="preserve">
<style type="text/css">
	.st0{fill:#040404;}
	.st1{fill:#0C0C0C;}
	.st2{fill:#FCFCFC;}
	.st3{fill:#050505;}
	.st4{fill:#030303;}
</style>
<g>
	<path class="st0" d="M-84-138.3c0-2.2,0-4.4,0-6.6c0-1,0.3-1.2,1.3-1.2c0.8,0,1,0.3,1,1.1c0,2.2,0,4.4,0,6.6c0,2.2,0.4,2.6,2.4,2.6
		c1.7,0,3.4,0,5.2,0c1.3,0,1.9-0.7,2-1.9c0.1-1.5-0.1-2.9,0-4.4c0.1-1,0.7-1.7,1.8-1.7c3,0,5.9,0,8.9,0c1.4,0,3.3,2.2,3.3,4.1
		c0.1,3.3,0,6.6,0,9.9c0,0.7-0.5,0.7-1,0.7c-0.6,0-1.3,0.2-1.3-0.8c0-0.4,0-0.7,0-1.1c-0.1-1.1-0.7-1.8-1.8-1.8
		c-5.9,0-11.8,0-17.7,0c-1.4,0-1.6,0.3-1.9,2.8c0,0.4-0.1,0.8-0.4,0.9c-0.5,0.2-0.9-0.2-1.3-0.5c-0.6-0.5-0.6-1-0.6-1.6
		C-84-133.7-84-136-84-138.3z"/>
	<path class="st1" d="M-76.2-143.9c1.9,0,2.6,1,2.6,3.6c-0.1,2-1.4,3.1-3.5,3c-2.1-0.1-3.2-1.3-3.1-3.4
		C-80.3-143-79.1-143.9-76.2-143.9z"/>
</g>
<path class="st2" d="M-34.1-98.9c-19.9,0-39.8,0-59.8,0c0-15.4,0-30.9,0-46.3c19.9,0,39.8,0,59.8,0
	C-34.1-129.7-34.1-114.3-34.1-98.9z M-62.8-124.8c-4.6,4.6-9.2,9.1-13.7,13.7c-0.5,0.5-1.1,0.9-1.4,1.4c-0.5,0.7-0.7,1.6,0,2.4
	c0.8,0.7,1.6,0.6,2.3-0.1c0.5-0.4,1-0.9,1.5-1.4c3-2.9,5.9-5.8,9.1-8.8c2.8,2.8,5.5,5.5,8.2,8.2c0.6,0.6,1.2,1.2,1.8,1.8
	c0.8,0.8,1.7,1.1,2.6,0.3c0.8-0.8,0.6-1.7-0.1-2.6c-0.5-0.6-1.1-1.1-1.6-1.6c-2.8-2.8-5.6-5.6-8.3-8.3c0.7-1.3,1.5-2.1,2.5-2.6
	c5.1,1.4,9.7-2.4,11.1-6.2c1.5-4.1-0.7-8.9-6.3-8c-1.4,0.2-2.6,0.7-3.7,1.6C-62.2-132.4-63.9-129.2-62.8-124.8z M-67.3-124.1
	c-2.9-3.9-9.8-10.3-11.7-11c-2.1,2-2.4,5.2-0.5,7.7c2.2,2.9,5,5.3,7.8,7.9C-70.1-121.1-68.5-122.4-67.3-124.1z"/>
<g>
	<path class="st3" d="M17.6,13.3c-1-3.8,0.5-6.7,3.4-8.9c0.9-0.7,2-1.2,3.2-1.4c4.9-0.8,6.8,3.4,5.5,7c-1.2,3.3-5.3,6.6-9.7,5.4
		c-0.9,0.5-1.6,1.2-2.2,2.3c2.4,2.4,4.8,4.8,7.3,7.2c0.5,0.5,1,1,1.4,1.4c0.7,0.7,0.8,1.6,0.1,2.2c-0.7,0.7-1.6,0.4-2.2-0.3
		c-0.5-0.5-1.1-1.1-1.6-1.6c-2.4-2.4-4.7-4.8-7.2-7.2c-2.8,2.7-5.4,5.2-8,7.7c-0.4,0.4-0.8,0.8-1.3,1.2c-0.6,0.6-1.4,0.7-2,0.1
		c-0.7-0.6-0.4-1.4,0-2.1c0.3-0.5,0.8-0.8,1.2-1.3C9.6,21.3,13.6,17.3,17.6,13.3z"/>
	<path class="st4" d="M13.7,13.9c-1.1,1.5-2.5,2.6-3.9,4C7.4,15.7,5,13.6,3,11c-1.7-2.2-1.5-5,0.4-6.8C5.2,4.9,11.1,10.6,13.7,13.9z
		"/>
</g>
</svg>
