<svg xmlns="http://www.w3.org/2000/svg" width="32" height="32" version="1"><path fill="#24c4bc" d="M32 16c0 8.836-7.164 16-16 16S0 24.836 0 16 7.164 0 16 0s16 7.164 16 16z"/><path fill="#fff" d="M14.01 7.58c-.153 0-.306.23-.23.383 0 .153.153.306.383.23.076 0 .153.076.153.152a.165.165 0 0 1-.153.154h-.153c-.383.076-.69.382-.69.765s.384.765.766.765h.077c.076 0 .153.077.153.154a.165.165 0 0 1-.153.153c-.153-.077-.383.076-.383.306 0 .153.23.306.383.306a.767.767 0 0 0 .765-.765c0-.383-.306-.69-.689-.766h-.153a.165.165 0 0 1-.153-.153c0-.077.077-.153.153-.153h.077c.383 0 .765-.383.765-.766a.767.767 0 0 0-.765-.765h-.153zm1.76 0c-.153 0-.306.23-.23.383 0 .153.23.306.383.23.077 0 .154.076.154.152 0 .077-.154.154-.23.154h-.077c-.382.076-.689.382-.689.765s.383.765.766.765c.076 0 .153.077.153.154a.165.165 0 0 1-.153.153c-.153-.077-.383.076-.383.306 0 .153.23.306.383.306.46 0 .765-.306.765-.765 0-.383-.306-.69-.689-.766h-.153a.165.165 0 0 1-.153-.153c0-.077.077-.153.153-.153.46 0 .766-.383.766-.766a.767.767 0 0 0-.766-.765c.153 0 0 0 0 0zm1.914 0c-.153 0-.306.23-.23.383.077.153.23.306.383.23.077 0 .153.076.153.152a.165.165 0 0 1-.153.154h-.076c-.383.076-.69.382-.69.765s.383.765.766.765h.077c.076 0 .153.077.153.154a.165.165 0 0 1-.153.153c-.23-.077-.383.076-.383.306 0 .153.23.306.383.306a.767.767 0 0 0 .765-.765c0-.383-.306-.69-.689-.766h-.153a.165.165 0 0 1-.153-.153c-.153-.077 0-.153 0-.153.383 0 .765-.383.765-.766a.767.767 0 0 0-.765-.765zm-3.674 4.287c-.153 0-.23.153-.23.306v.612h-3.368c-.842 0-1.454.383-1.76.919-.307.459-.383 1.071-.383 1.607a.33.33 0 0 0 .306.306h14.85a.33.33 0 0 0 .306-.306c0-.46 0-1.072-.23-1.607-.23-.536-.765-.919-1.607-.919h-3.75v-.612a.33.33 0 0 0-.307-.306H14.01zM7.657 16a1.21 1.21 0 0 0-1.225 1.225 1.21 1.21 0 0 0 1.225 1.224c.23 0 .459-.076.612-.153v3.675c0 1.377 1.072 2.449 2.526 2.449h10.41a2.548 2.548 0 0 0 2.526-2.526v-3.598c.153.077.383.153.612.153a1.21 1.21 0 0 0 1.225-1.224A1.21 1.21 0 0 0 24.343 16c-.382 0-.765.153-.995.46H8.575c-.23-.23-.612-.46-.918-.46z"/></svg>