<?xml version="1.0" encoding="utf-8"?>
<!-- Generator: Adobe Illustrator 24.0.1, SVG Export Plug-In . SVG Version: 6.00 Build 0)  -->
<svg version="1.1" id="Layer_1" xmlns="http://www.w3.org/2000/svg" xmlns:xlink="http://www.w3.org/1999/xlink" x="0px" y="0px"
	 viewBox="0 0 24 24" style="enable-background:new 0 0 24 24;" xml:space="preserve">
<style type="text/css">
	.st0{fill:#35BDB8;}
	.st1{fill:none;}
	.st2{fill:#FFFFFF;}
</style>
<g>
	<circle class="st0" cx="12" cy="12.3" r="12"/>
	<path class="st1" d="M3,3.3h18v18H3V3.3z"/>
	<path class="st2" d="M8.3,13c1.2,0,2.3-1,2.3-2.3s-1-2.3-2.3-2.3S6,9.5,6,10.8S7,13,8.3,13z M17.3,8.5h-4.5c-0.8,0-1.5,0.7-1.5,1.5
		v3.8h-6v-6C5.3,7.3,4.9,7,4.5,7S3.8,7.3,3.8,7.8v9.8c0,0.4,0.3,0.8,0.8,0.8s0.8-0.3,0.8-0.8V16h13.5v1.5c0,0.4,0.3,0.8,0.8,0.8
		c0.4,0,0.8-0.3,0.8-0.8v-6C20.3,9.8,18.9,8.5,17.3,8.5z"/>
</g>
</svg>
