<?xml version="1.0" encoding="utf-8"?>
<!-- Generator: Adobe Illustrator 24.0.1, SVG Export Plug-In . SVG Version: 6.00 Build 0)  -->
<svg version="1.1" id="Layer_1" xmlns="http://www.w3.org/2000/svg" xmlns:xlink="http://www.w3.org/1999/xlink" x="0px" y="0px"
	 viewBox="0 0 24 24" style="enable-background:new 0 0 24 24;" xml:space="preserve">
<style type="text/css">
	.st0{fill:none;}
	.st1{fill:#35BDB8;}
	.st2{fill:#FFFFFF;}
</style>
<path class="st0" d="M53.2-10.3h18v18h-18V-10.3z"/>
<g>
	<circle class="st1" cx="12" cy="12" r="12"/>
	<path class="st2" d="M15.6,19.5H21v-2.7c-0.8,0-1.5-0.7-1.5-1.5c0-0.8,0.7-1.5,1.5-1.5v-2.7h-5.4V19.5z M15,11.1H3v8.4h12V11.1z
		 M13.8,17.4H4.2c-0.2,0-0.3-0.1-0.3-0.3c0-0.2,0.1-0.3,0.3-0.3h9.6c0.2,0,0.3,0.1,0.3,0.3C14.1,17.3,14,17.4,13.8,17.4z M13.8,15.6
		H4.2c-0.2,0-0.3-0.1-0.3-0.3C3.9,15.2,4,15,4.2,15h9.6c0.2,0,0.3,0.1,0.3,0.3C14.1,15.5,14,15.6,13.8,15.6z M13.8,13.8H7.2
		c-0.2,0-0.3-0.1-0.3-0.3c0-0.2,0.1-0.3,0.3-0.3h6.6c0.2,0,0.3,0.1,0.3,0.3C14.1,13.7,14,13.8,13.8,13.8z M8.1,10.5L10.6,8
		c0.1-0.1,0.3-0.1,0.4,0c0.1,0.1,0.1,0.3,0,0.4l-2.1,2.1h1.7l1.2-1.2c0.1-0.1,0.3-0.1,0.4,0c0.1,0.1,0.1,0.3,0,0.4c0,0,0,0,0,0
		l-0.8,0.8h1.7c0.1,0,0.2,0,0.3,0h1.3L9.9,5.7l-4.8,4.8H8.1z M20.1,7.4l-1.9-1.9c-0.6,0.6-1.5,0.6-2.1,0c-0.6-0.6-0.6-1.5,0-2.1
		c0,0,0,0,0,0l-1.9-1.9l-3.8,3.8l5.2,5.3H17L20.1,7.4z"/>
</g>
</svg>
